<svg width="64" height="64" viewBox="0 0 64 64" fill="none" xmlns="http://www.w3.org/2000/svg">
<path d="M64 32C64 14.325 49.675 0 32 0C14.325 0 0 14.325 0 32C0 47.975 11.7 61.2125 27 63.6125V41.25H18.875V32H27V24.95C27 16.9313 31.775 12.5 39.0875 12.5C42.5875 12.5 46.25 13.125 46.25 13.125V21H42.2125C38.2375 21 37 23.4688 37 26V32H45.875L44.4562 41.25H37V63.6125C52.3 61.2125 64 47.975 64 32Z" fill="#1877F2"/>
<path d="M44.4562 41.25L45.875 32H37V26C37 23.4688 38.2375 21 42.2125 21H46.25V13.125C46.25 13.125 42.5875 12.5 39.0875 12.5C31.775 12.5 27 16.9313 27 24.95V32H18.875V41.25H27V63.6125C28.6313 63.8687 30.3 64 32 64C33.7 64 35.3687 63.8687 37 63.6125V41.25H44.4562Z" fill="white"/>
</svg>
