<svg width="31" height="35" viewBox="0 0 31 35" fill="none" xmlns="http://www.w3.org/2000/svg">
<path d="M5.57 25.14C5.55 25.37 5.53 25.71 5.52 25.95C5.39 30.03 4.29 31.9 2.32 33.27L1.59 32.68C1.91 32.51 2.31 32.23 2.61 31.95C3.86 30.82 4.68 29.13 4.7 25.97C4.7 25.74 4.68 25.37 4.64 25.14H5.57ZM9.05 27.22C9.02 27.39 9 27.57 8.99 27.7C8.96 28.67 8.83 31.57 8.38 32.53C8.18 32.96 7.86 33.14 7.31 33.14C6.81 33.14 6.23 33.11 5.71 33.07L5.61 32.24C6.15 32.31 6.67 32.36 7.1 32.36C7.38 32.36 7.57 32.27 7.68 32.03C8.06 31.26 8.19 28.8 8.19 27.73H2.92C2.52 27.73 2.12 27.74 1.76 27.77V26.93C2.11 26.96 2.52 26.98 2.91 26.98H7.85C8.12 26.98 8.31 26.96 8.48 26.93L9.05 27.22ZM11.51 28.67C11.82 28.7 12.34 28.73 12.91 28.73C13.64 28.73 17.65 28.73 18.39 28.73C18.89 28.73 19.24 28.69 19.47 28.67V29.65C19.26 29.64 18.84 29.61 18.4 29.61C17.64 29.61 13.65 29.61 12.91 29.61C12.36 29.61 11.83 29.63 11.51 29.65V28.67ZM23.86 32.12C23.86 31.56 23.86 27.14 23.86 26.31C23.86 26.02 23.84 25.58 23.79 25.26H24.77C24.73 25.57 24.7 26 24.7 26.31C24.7 27.86 24.71 31.65 24.71 32.12C24.71 32.44 24.73 32.98 24.77 33.31H23.8C23.85 32.99 23.86 32.49 23.86 32.12ZM24.52 27.89C25.84 28.27 27.86 29.04 28.97 29.58L28.62 30.43C27.48 29.82 25.61 29.11 24.52 28.77V27.89Z" fill="#7F5539"/>
<path d="M24.0756 3.96903C24.006 3.88583 23.9191 3.81891 23.8209 3.773C23.7227 3.72709 23.6155 3.7033 23.5071 3.70332H8.57174L8.11901 1.21654C8.05701 0.875219 7.87717 0.566487 7.61087 0.34417C7.34456 0.121852 7.00867 5.01377e-05 6.66177 0H4.99066C4.79422 0 4.60583 0.0780339 4.46693 0.216935C4.32803 0.355837 4.25 0.544227 4.25 0.740664C4.25 0.9371 4.32803 1.12549 4.46693 1.26439C4.60583 1.40329 4.79422 1.48133 4.99066 1.48133H6.65714L9.02354 14.4698C9.09325 14.855 9.26348 15.2149 9.51701 15.5132C9.16709 15.84 8.91453 16.2574 8.78733 16.719C8.66013 17.1806 8.66326 17.6684 8.79637 18.1284C8.92949 18.5883 9.18739 19.0024 9.54147 19.3247C9.89556 19.647 10.332 19.865 10.8024 19.9544C11.2728 20.0438 11.7587 20.0012 12.2064 19.8313C12.654 19.6614 13.0459 19.3708 13.3385 18.9918C13.6311 18.6128 13.813 18.1601 13.864 17.684C13.9151 17.208 13.8333 16.727 13.6277 16.2946H17.8328C17.6671 16.6415 17.5813 17.0212 17.5819 17.4056C17.5819 17.9183 17.7339 18.4195 18.0187 18.8458C18.3036 19.2721 18.7084 19.6044 19.1821 19.8006C19.6558 19.9968 20.177 20.0481 20.6799 19.9481C21.1827 19.8481 21.6447 19.6012 22.0072 19.2386C22.3697 18.8761 22.6166 18.4142 22.7167 17.9113C22.8167 17.4085 22.7653 16.8872 22.5691 16.4136C22.3729 15.9399 22.0407 15.535 21.6144 15.2502C21.1881 14.9653 20.6869 14.8133 20.1742 14.8133H11.2094C11.036 14.8132 10.868 14.7523 10.7349 14.6412C10.6017 14.53 10.5118 14.3757 10.4808 14.205L10.1873 12.5913H20.9269C21.4472 12.5912 21.951 12.4085 22.3505 12.075C22.75 11.7415 23.0197 11.2785 23.1127 10.7665L24.2385 4.57638C24.2576 4.46939 24.2529 4.35951 24.2247 4.25455C24.1965 4.14959 24.1456 4.05211 24.0756 3.96903ZM12.3972 17.4056C12.3972 17.6253 12.3321 17.8401 12.21 18.0228C12.0879 18.2055 11.9144 18.3479 11.7114 18.432C11.5084 18.5161 11.285 18.5381 11.0695 18.4952C10.854 18.4524 10.656 18.3466 10.5007 18.1912C10.3453 18.0358 10.2395 17.8379 10.1966 17.6223C10.1537 17.4068 10.1757 17.1834 10.2598 16.9804C10.3439 16.7774 10.4863 16.6039 10.669 16.4818C10.8517 16.3598 11.0665 16.2946 11.2863 16.2946C11.5809 16.2946 11.8635 16.4116 12.0718 16.62C12.2802 16.8284 12.3972 17.1109 12.3972 17.4056ZM21.2851 17.4056C21.2851 17.6253 21.22 17.8401 21.0979 18.0228C20.9758 18.2055 20.8023 18.3479 20.5993 18.432C20.3963 18.5161 20.1729 18.5381 19.9574 18.4952C19.7419 18.4524 19.5439 18.3466 19.3886 18.1912C19.2332 18.0358 19.1274 17.8379 19.0845 17.6223C19.0416 17.4068 19.0637 17.1834 19.1477 16.9804C19.2318 16.7774 19.3742 16.6039 19.5569 16.4818C19.7396 16.3598 19.9544 16.2946 20.1742 16.2946C20.4688 16.2946 20.7514 16.4116 20.9597 16.62C21.1681 16.8284 21.2851 17.1109 21.2851 17.4056ZM21.6555 10.5017C21.6244 10.6728 21.5341 10.8275 21.4003 10.9388C21.2666 11.05 21.098 11.1106 20.9241 11.11H9.91789L8.84116 5.18465H22.6193L21.6555 10.5017Z" fill="#7F5539"/>
</svg>
