<svg width="51" height="35" viewBox="0 0 51 35" fill="none" xmlns="http://www.w3.org/2000/svg">
<path d="M1.96 26.15C2.35 26.17 2.61 26.17 2.85 26.17C3.38 26.17 7.73 26.17 8.22 26.17C8.43 26.17 8.79 26.17 9.1 26.16C9.08 26.4 9.08 26.68 9.08 26.93C9.08 27.4 9.08 31.48 9.08 31.86C9.08 32.18 9.09 32.96 9.1 33.07H8.23C8.24 32.96 8.25 32.39 8.25 31.97C8.25 31.6 8.25 26.96 8.25 26.96H2.79C2.79 26.96 2.79 31.56 2.79 31.97C2.79 32.3 2.8 32.94 2.8 33.07H1.95C1.95 32.94 1.97 32.21 1.97 31.86C1.97 31.45 1.97 27.32 1.97 26.93C1.97 26.7 1.97 26.4 1.96 26.15ZM8.58 31.72V32.5H2.39V31.72H8.58ZM18.15 25C18.4 25.36 18.76 25.97 18.96 26.37L18.42 26.62C18.22 26.21 17.88 25.61 17.61 25.23L18.15 25ZM19.24 24.6C19.51 24.97 19.89 25.59 20.08 25.96L19.54 26.2C19.32 25.77 19 25.2 18.72 24.83L19.24 24.6ZM18.81 26.99C18.73 27.14 18.63 27.37 18.58 27.53C18.31 28.53 17.69 29.89 16.81 30.97C15.9 32.08 14.7 33 12.82 33.69L12.1 33.04C13.94 32.5 15.18 31.59 16.09 30.53C16.87 29.61 17.48 28.32 17.69 27.41H13.98L14.3 26.69C14.71 26.69 17.18 26.69 17.49 26.69C17.76 26.69 17.98 26.66 18.15 26.59L18.81 26.99ZM15.46 25.48C15.3 25.74 15.12 26.08 15.02 26.27C14.43 27.37 13.38 28.8 11.78 29.87L11.08 29.35C12.81 28.32 13.79 26.87 14.23 25.97C14.33 25.8 14.48 25.43 14.54 25.18L15.46 25.48ZM29.81 26.25C29.73 26.34 29.61 26.49 29.54 26.6C29.14 27.28 28.19 28.57 27.05 29.36L26.38 28.83C27.31 28.3 28.25 27.22 28.57 26.6C27.87 26.6 23.35 26.6 22.87 26.6C22.5 26.6 22.13 26.62 21.74 26.65V25.75C22.09 25.8 22.5 25.84 22.87 25.84C23.35 25.84 28.02 25.84 28.62 25.84C28.81 25.84 29.17 25.81 29.31 25.77L29.81 26.25ZM25.81 27.56C25.81 30.27 25.57 32.1 23.02 33.38L22.29 32.78C22.56 32.69 22.91 32.52 23.19 32.33C24.73 31.38 24.95 29.96 24.95 28.29C24.95 28.05 24.95 27.83 24.91 27.56H25.81ZM35.9 25C35.86 25.31 35.85 25.54 35.85 25.75C35.85 25.98 35.85 26.73 35.85 27.08H35C35 26.69 35 25.98 35 25.75C35 25.54 34.99 25.31 34.95 25H35.9ZM39.31 26.94C39.26 27.08 39.2 27.35 39.17 27.54C39.03 28.34 38.74 29.59 38.18 30.54C37.44 31.85 36.06 32.87 34.23 33.37L33.58 32.63C33.91 32.57 34.29 32.47 34.61 32.35C35.62 32.02 36.71 31.28 37.33 30.33C37.87 29.48 38.18 28.27 38.27 27.42H32.69C32.69 27.83 32.69 28.9 32.69 29.21C32.69 29.38 32.7 29.65 32.72 29.8H31.85C31.88 29.63 31.89 29.36 31.89 29.16C31.89 28.84 31.89 27.75 31.89 27.4C31.89 27.19 31.89 26.85 31.85 26.64C32.14 26.66 32.44 26.68 32.79 26.68H38.09C38.46 26.68 38.64 26.64 38.77 26.6L39.31 26.94ZM43.86 32.12C43.86 31.56 43.86 27.14 43.86 26.31C43.86 26.02 43.84 25.58 43.79 25.26H44.77C44.73 25.57 44.7 26 44.7 26.31C44.7 27.86 44.71 31.65 44.71 32.12C44.71 32.44 44.73 32.98 44.77 33.31H43.8C43.85 32.99 43.86 32.49 43.86 32.12ZM44.52 27.89C45.84 28.27 47.86 29.04 48.97 29.58L48.62 30.43C47.48 29.82 45.61 29.11 44.52 28.77V27.89Z" fill="#7F5539"/>
<path d="M22.5714 9V6L27.3333 10L22.5714 14V11H14V9H22.5714ZM15.3886 13H17.4114C18.0762 14.7191 19.2892 16.1422 20.843 17.0259C22.3967 17.9097 24.1946 18.1991 25.9291 17.8447C27.6636 17.4904 29.227 16.5142 30.3517 15.0832C31.4765 13.6523 32.0928 11.8554 32.0952 10C32.0962 8.14266 31.4817 6.34283 30.357 4.90922C29.2324 3.47561 27.6677 2.49756 25.9314 2.14281C24.1951 1.78807 22.3953 2.07874 20.8407 2.96498C19.2862 3.85121 18.0738 5.27778 17.4114 7H15.3886C16.6019 2.943 20.2114 0 24.4762 0C29.7362 0 34 4.477 34 10C34 15.523 29.7362 20 24.4762 20C20.2114 20 16.6019 17.057 15.3886 13Z" fill="#7F5539"/>
</svg>
