<svg width="60" height="50" viewBox="0 0 60 50" fill="none" xmlns="http://www.w3.org/2000/svg">
<path d="M40.2114 26.4553C39.1123 26.4553 38.305 26.1934 37.7896 25.6696C37.2741 25.1459 37.0163 24.2775 37.0163 23.0645C37.0163 22.0996 37.1865 21.0612 37.5269 19.9493C37.8771 18.8374 38.4315 17.8863 39.1902 17.0961C39.9585 16.2966 40.9311 15.8969 42.1081 15.8969C42.8375 15.8969 43.4259 16.0485 43.8733 16.3517C44.3208 16.655 44.5445 17.119 44.5445 17.7439C44.5445 18.139 44.4618 18.4515 44.2965 18.6812C44.1311 18.9018 43.8733 19.012 43.5232 19.012C43.1731 19.012 42.8958 18.8926 42.6916 18.6537C42.8667 18.5709 43.0223 18.4055 43.1585 18.1574C43.2947 17.9093 43.3627 17.652 43.3627 17.3855C43.3627 17.1374 43.2898 16.9352 43.1439 16.779C43.0077 16.6228 42.784 16.5447 42.4728 16.5447C41.9573 16.5447 41.4661 16.8801 40.9992 17.5509C40.5324 18.2126 40.153 19.0488 39.8612 20.0596C39.5792 21.0704 39.4382 22.0445 39.4382 22.9818C39.4382 23.6801 39.5646 24.2131 39.8175 24.5807C40.0704 24.9483 40.5275 25.1321 41.1889 25.1321C41.7628 25.1321 42.2928 25.0126 42.7791 24.7737C43.2654 24.5348 43.6837 24.1947 44.0338 23.7537L44.3694 23.8915C44.1263 24.4705 43.7664 24.9529 43.2898 25.3388C42.8132 25.7248 42.3026 26.0096 41.7579 26.1934C41.2132 26.368 40.6977 26.4553 40.2114 26.4553Z" fill="#7F5539"/>
<path d="M45.5959 26.2899C45.2749 26.2899 45.0026 26.1842 44.7789 25.9729C44.5552 25.7615 44.4434 25.5042 44.4434 25.201C44.4434 24.8977 44.5552 24.6404 44.7789 24.429C45.0026 24.2085 45.2749 24.0983 45.5959 24.0983C45.9169 24.0983 46.1893 24.2085 46.4129 24.429C46.6464 24.6404 46.7631 24.8977 46.7631 25.201C46.7631 25.5042 46.6464 25.7615 46.4129 25.9729C46.1893 26.1842 45.9169 26.2899 45.5959 26.2899Z" fill="#7F5539"/>
<path d="M32.7844 37.8697C31.6853 37.8697 30.878 37.6079 30.3625 37.084C29.847 36.5602 29.5892 35.6918 29.5892 34.4789C29.5892 33.514 29.7595 32.4756 30.0999 31.3637C30.4501 30.2518 31.0045 29.3008 31.7631 28.5105C32.5315 27.711 33.5041 27.3113 34.681 27.3113C35.4104 27.3113 35.9989 27.4629 36.4463 27.7662C36.8937 28.0694 37.1174 28.5334 37.1174 29.1583C37.1174 29.5535 37.0348 29.8659 36.8694 30.0956C36.704 30.3161 36.4463 30.4264 36.0961 30.4264C35.746 30.4264 35.4688 30.3069 35.2646 30.068C35.4396 29.9853 35.5953 29.8199 35.7314 29.5718C35.8676 29.3237 35.9357 29.0664 35.9357 28.7999C35.9357 28.5518 35.8627 28.3497 35.7168 28.1935C35.5807 28.0372 35.357 27.9591 35.0457 27.9591C34.5302 27.9591 34.039 28.2945 33.5722 28.9653C33.1053 29.627 32.726 30.4632 32.4342 31.474C32.1522 32.4848 32.0111 33.4589 32.0111 34.3962C32.0111 35.0946 32.1375 35.6275 32.3905 35.9951C32.6433 36.3627 33.1005 36.5465 33.7618 36.5465C34.3357 36.5465 34.8658 36.427 35.3521 36.1881C35.8384 35.9492 36.2567 35.6092 36.6068 35.1681L36.9423 35.3059C36.6992 35.8848 36.3393 36.3673 35.8627 36.7532C35.3861 37.1392 34.8755 37.424 34.3308 37.6078C33.7861 37.7824 33.2707 37.8697 32.7844 37.8697Z" fill="#7F5539"/>
<path d="M38.1689 37.7042C37.8479 37.7042 37.5756 37.5986 37.3519 37.3872C37.1282 37.1758 37.0163 36.9186 37.0163 36.6153C37.0163 36.312 37.1282 36.0548 37.3519 35.8434C37.5756 35.6228 37.8479 35.5126 38.1689 35.5126C38.4899 35.5126 38.7622 35.6228 38.9859 35.8434C39.2193 36.0548 39.3361 36.312 39.3361 36.6153C39.3361 36.9186 39.2193 37.1758 38.9859 37.3872C38.7622 37.5986 38.4899 37.7042 38.1689 37.7042Z" fill="#7F5539"/>
<path d="M26.081 49.9845C25.4974 49.9845 24.9041 49.741 24.3011 49.254L24.1844 49.8053H22.0835L24.0677 41.0387L26.2269 40.7631L24.4762 48.4958C24.7485 48.6796 25.0257 48.7715 25.3078 48.7715C25.8622 48.7715 26.3485 48.4683 26.7667 47.8618C27.1947 47.2553 27.5254 46.4834 27.7588 45.5461C27.9922 44.6088 28.109 43.6623 28.109 42.7066C28.109 41.8061 27.9193 41.1491 27.5399 40.7355C27.1704 40.3128 26.65 40.1015 25.9789 40.1015C25.2494 40.1015 24.5929 40.2393 24.0093 40.515C23.4355 40.7815 22.9832 41.1674 22.6525 41.6728C22.3218 42.1782 22.1565 42.7709 22.1565 43.4509C22.1565 43.7909 22.1905 44.0299 22.2586 44.1677C22.3267 44.2964 22.3607 44.3699 22.3607 44.3882C21.855 44.3882 21.4659 44.2872 21.1936 44.085C20.931 43.8828 20.7997 43.5566 20.7997 43.1063C20.7997 42.4815 21.0477 41.8888 21.5437 41.3282C22.0398 40.7677 22.7012 40.3174 23.5279 39.9774C24.3643 39.6374 25.264 39.4674 26.2269 39.4674C27.5594 39.4674 28.5417 39.8396 29.174 40.5839C29.8062 41.3282 30.1223 42.2793 30.1223 43.4372C30.1223 44.4847 29.9326 45.5185 29.5533 46.5386C29.1837 47.5493 28.6876 48.3764 28.0652 49.0197C27.4427 49.6629 26.7813 49.9845 26.081 49.9845Z" fill="#7F5539"/>
<path d="M32.5162 49.8605C31.7964 49.8605 31.2275 49.6859 30.8093 49.3366C30.391 48.9875 30.1819 48.4361 30.1819 47.6826C30.1819 47.0577 30.318 46.3639 30.5904 45.6012C30.8627 44.8385 31.3004 44.1815 31.9035 43.6302C32.5065 43.0696 33.2651 42.7893 34.1794 42.7893C35.4244 42.7893 36.0468 43.5244 36.0468 44.9948V45.0085C36.076 45.0177 36.1295 45.0223 36.2073 45.0223C36.5282 45.0223 36.8979 44.9442 37.3161 44.788C37.7343 44.6226 38.1137 44.425 38.4541 44.1952L38.5854 44.5674C38.3033 44.8523 37.9337 45.0958 37.4766 45.298C37.0292 45.491 36.538 45.6288 36.0031 45.7115C35.9252 46.5477 35.7258 47.2783 35.4049 47.9032C35.0839 48.528 34.6706 49.0105 34.1648 49.3504C33.659 49.6905 33.1095 49.8605 32.5162 49.8605ZM33.0998 48.6199C33.3332 48.6199 33.5666 48.4958 33.8001 48.2477C34.0335 47.9904 34.2378 47.6458 34.4128 47.214C34.5879 46.7729 34.7143 46.2858 34.7922 45.7528C34.5295 45.6977 34.3982 45.5047 34.3982 45.1739C34.3982 44.7972 34.549 44.5491 34.8505 44.4296C34.831 44.1264 34.7824 43.9196 34.7046 43.8093C34.6268 43.6899 34.4906 43.6302 34.2961 43.6302C33.9751 43.6302 33.6639 43.8507 33.3624 44.2918C33.0609 44.7329 32.8177 45.2612 32.6329 45.8769C32.4481 46.4926 32.3557 47.0348 32.3557 47.5034C32.3557 47.9445 32.4092 48.2431 32.5162 48.3994C32.6232 48.5464 32.8177 48.6199 33.0998 48.6199Z" fill="#7F5539"/>
<path d="M42.0643 49.888C41.471 49.888 41.0333 49.7409 40.7512 49.4469C40.4789 49.1436 40.3427 48.7715 40.3427 48.3304C40.3427 48.1374 40.367 47.9214 40.4156 47.6825C40.4643 47.4344 40.5129 47.1955 40.5615 46.9658C40.6199 46.736 40.6588 46.589 40.6783 46.5247C40.7561 46.203 40.829 45.886 40.8971 45.5736C40.9652 45.2611 40.9992 45.0084 40.9992 44.8154C40.9992 44.3468 40.8242 44.1125 40.474 44.1125C40.2211 44.1125 39.9974 44.232 39.8029 44.4709C39.6084 44.7006 39.4527 45.0038 39.3361 45.3806L38.344 49.8052H36.2431L37.7896 42.9133H39.8904L39.73 43.6301C40.2163 43.1155 40.7852 42.8582 41.4369 42.8582C41.933 42.8582 42.3269 42.9868 42.6187 43.2441C42.9105 43.5014 43.0564 43.8919 43.0564 44.4157C43.0564 44.6822 43.0223 44.9809 42.9542 45.3117C42.8861 45.6333 42.7889 46.0285 42.6624 46.4971C42.5846 46.782 42.5117 47.0622 42.4436 47.3379C42.3852 47.6044 42.3561 47.8158 42.3561 47.972C42.3561 48.1557 42.3998 48.2982 42.4873 48.3993C42.5749 48.5004 42.7256 48.5509 42.9396 48.5509C43.2314 48.5509 43.4649 48.4544 43.6399 48.2615C43.815 48.0593 43.99 47.7514 44.1651 47.3379H44.7779C44.418 48.3487 43.9998 49.0287 43.5232 49.3779C43.0564 49.7179 42.5701 49.888 42.0643 49.888Z" fill="#7F5539"/>
<path d="M45.6078 49.888C45.1409 49.888 44.7616 49.7502 44.4698 49.4745C44.1877 49.1988 44.0467 48.7853 44.0467 48.2339C44.0467 48.0042 44.0856 47.7055 44.1634 47.338L45.1555 42.9133H47.2564L46.206 47.5998C46.1768 47.7377 46.1622 47.8663 46.1622 47.9858C46.1622 48.3626 46.3081 48.5509 46.5999 48.5509C46.8722 48.5509 47.1056 48.4453 47.3002 48.2339C47.4947 48.0134 47.6503 47.7147 47.767 47.338L48.7591 42.9133H50.8599L49.8095 47.5998C49.7706 47.7377 49.7512 47.8847 49.7512 48.0409C49.7512 48.2247 49.7949 48.358 49.8825 48.4407C49.9797 48.5142 50.1354 48.5509 50.3493 48.5509C50.6217 48.5509 50.8551 48.4407 51.0496 48.2201C51.2539 47.9996 51.4144 47.7055 51.5311 47.338H52.1438C51.7839 48.3304 51.3366 49.0058 50.8016 49.3642C50.2764 49.7134 49.7463 49.888 49.2114 49.888C48.7931 49.888 48.4576 49.7777 48.2047 49.5572C47.9615 49.3366 47.8156 49.0104 47.767 48.5785C47.4363 49.0839 47.0862 49.4285 46.7166 49.6123C46.3567 49.7961 45.9871 49.888 45.6078 49.888Z" fill="#7F5539"/>
<path d="M52.9737 49.8879C52.5068 49.8879 52.1275 49.75 51.8357 49.4743C51.5537 49.1987 51.4126 48.7851 51.4126 48.2338C51.4126 48.0041 51.4516 47.7054 51.5294 47.3379L52.4047 43.4646H51.9233L52.04 42.9132H52.5215L52.9591 41.0111L55.1183 40.7354L54.6221 42.9132H55.4975L55.3811 43.4646H54.5056L53.5721 47.5997C53.5327 47.7376 53.5136 47.8846 53.5136 48.0408C53.5136 48.2246 53.5572 48.3578 53.645 48.4406C53.7423 48.5141 53.8976 48.5508 54.1114 48.5508C54.3939 48.5508 54.6561 48.4406 54.8997 48.22C55.1428 47.9903 55.3178 47.6962 55.4247 47.3379H56.0374C55.6779 48.3303 55.2156 49.0057 54.6513 49.3641C54.0875 49.7133 53.528 49.8879 52.9737 49.8879Z" fill="#7F5539"/>
<path d="M57.082 49.8879C56.615 49.8879 56.2214 49.8052 55.9002 49.6398C55.5795 49.4652 55.3412 49.2447 55.1853 48.9782C55.03 48.7025 54.9518 48.4176 54.9518 48.1236C54.9518 47.8203 55.03 47.5584 55.1853 47.3379C55.3316 47.1081 55.5114 46.9427 55.7252 46.8417C56.1044 46.1984 56.4353 45.5506 56.7172 44.8981C56.9996 44.2365 57.2671 43.5243 57.5198 42.7617L59.6793 42.486C59.7277 43.6622 59.8101 44.9349 59.9271 46.3041C59.9755 46.8555 60 47.2552 60 47.5033C60 48.0638 59.8495 48.5233 59.5479 48.8817C59.2463 49.2401 58.8719 49.4974 58.4245 49.6536C57.9868 49.8098 57.5395 49.8879 57.082 49.8879ZM56.615 48.799C56.9751 48.799 57.2767 48.6979 57.5198 48.4957C57.7629 48.2936 57.8847 47.9674 57.8847 47.5171C57.8847 47.2414 57.8554 46.8555 57.7969 46.3593C57.6996 45.3116 57.6363 44.6087 57.6076 44.2503C57.3741 44.9763 56.9799 45.8446 56.4257 46.8554C56.6491 46.9657 56.7613 47.1265 56.7613 47.3379C56.7613 47.5125 56.698 47.6687 56.5714 47.8065C56.4549 47.9444 56.3039 48.0133 56.1193 48.0133C55.9151 48.0133 55.7837 47.9536 55.7252 47.8341C55.7252 48.1649 55.7933 48.4084 55.9294 48.5647C56.0752 48.7209 56.3039 48.799 56.615 48.799Z" fill="#7F5539"/>
<path d="M34.7076 17.2458C31.9887 15.7207 28.7364 15.2732 25.6663 16.0014C22.5962 16.7297 19.9597 18.5742 18.3368 21.1292C16.7139 23.6842 16.2376 26.7404 17.0126 29.6254C17.7876 32.5104 19.7504 34.9879 22.4694 36.5129L28.5885 26.8794L34.7076 17.2458Z" fill="#E8C2CA"/>
<path d="M19.037 41.7759C16.9386 40.6102 15.1065 39.0658 13.6461 37.2317C12.1858 35.3976 11.1262 33.3101 10.5283 31.0894C9.9304 28.8687 9.8061 26.5588 10.1625 24.2928C10.519 22.0268 11.3491 19.8494 12.6051 17.8863C13.861 15.9231 15.518 14.2128 17.4805 12.8542C19.4431 11.4955 21.6723 10.5152 24.0399 9.96976C26.4074 9.42436 28.8664 9.3246 31.2751 9.67627C33.6839 10.0279 35.9947 10.8241 38.0745 12.0188L34.8527 16.9715C33.4683 16.1763 31.9301 15.6464 30.3267 15.4122C28.7234 15.1782 27.0866 15.2446 25.5107 15.6076C23.9348 15.9706 22.4509 16.6232 21.1446 17.5276C19.8382 18.432 18.7353 19.5703 17.8992 20.8771C17.0632 22.1839 16.5106 23.6332 16.2734 25.1416C16.0361 26.6499 16.1189 28.1875 16.5169 29.6656C16.9148 31.1438 17.6202 32.5334 18.5922 33.7542C19.5643 34.9751 20.7838 36.003 22.1806 36.779L19.037 41.7759Z" fill="#D1B3C4"/>
<path d="M13.95 50C7.43967 46.3466 2.73781 40.4151 0.876214 33.5075C-0.985378 26.5999 0.145378 19.2804 4.02033 13.1553C7.89529 7.03023 14.1979 2.59995 21.5449 0.836718C28.8921 -0.926515 36.6835 0.121326 43.2093 3.75029L38.3343 11.4916C33.9904 9.07604 28.8041 8.37855 23.9137 9.55222C19.0231 10.7259 14.8279 13.6749 12.2486 17.752C9.66925 21.829 8.91657 26.7012 10.1557 31.2992C11.3949 35.8971 14.5246 39.8453 18.8581 42.2773L13.95 50Z" fill="#B392AC"/>
</svg>
